# xmcd
#
# Track frame offsets:
#	150
#	20208
#	38316
#	56689
#	74832
#	93581
#	109613
#	132416
#	150315
#	165218
#	180707
#	199010
#	215098
#
# Disc length: 3138 seconds
#
# Revision: 1
# Processed by: cddbd v1.4b41PL3 Copyright (c) Steve Scherf et al.
# Submitted via: audiograbber 1.80
#
DISCID=b20c400d
DTITLE=Zibo - Rozpalasz Mnie
DYEAR=1900
DGENRE=
TTITLE0=Dlaczego
TTITLE1=Dobrze wiem
TTITLE2=Gdzie jestes
TTITLE3=Jestes tylko moja
TTITLE4=Oh Yea!
TTITLE5=Pokochalas
TTITLE6=Powiedz mi
TTITLE7=Prosze wroc
TTITLE8=Rozpalasz mnie
TTITLE9=Szary dni
TTITLE10=Wolam cie
TTITLE11=Zostaw mnie
TTITLE12=Tycie to tylko gra
EXTD=
EXTT0=
EXTT1=
EXTT2=
EXTT3=
EXTT4=
EXTT5=
EXTT6=
EXTT7=
EXTT8=
EXTT9=
EXTT10=
EXTT11=
EXTT12=
PLAYORDER=
